<svg xmlns="http://www.w3.org/2000/svg" xmlns:xlink="http://www.w3.org/1999/xlink" id="Layer_1" x="0px" y="0px" width="100%" viewBox="0 0 512 512" xml:space="preserve"><path fill="#303030" opacity="1.000000" stroke="none" d="M276.000000,513.000000  C184.022324,513.000000 92.544647,513.000000 1.033484,513.000000  C1.033484,342.397308 1.033484,171.794586 1.033484,1.095938  C171.561035,1.095938 342.122131,1.095938 512.841614,1.095938  C512.841614,171.666550 512.841614,342.333252 512.841614,513.000000  C434.127899,513.000000 355.313934,513.000000 276.000000,513.000000 M131.108688,343.994202  C131.835464,342.853241 132.562241,341.712280 133.623962,340.045502  C131.562912,339.914490 130.900589,339.848297 130.237137,339.833771  C114.094475,339.479980 110.035957,335.312531 110.033424,319.045898  C110.028671,288.546478 110.031929,258.047058 110.031860,227.547638  C110.031860,225.809937 110.031860,224.072220 110.031860,222.172546  C118.678055,222.172546 126.508781,222.343826 134.325699,222.089890  C137.539993,221.985474 139.389145,223.025482 141.197052,225.673401  C157.057709,248.903534 172.924866,272.132385 189.112137,295.135040  C196.668243,305.872528 204.493973,316.485718 213.003601,326.468109  C221.235306,336.124481 232.110840,342.352905 244.911118,343.319550  C257.340912,344.258179 269.874298,343.888092 282.361603,343.858368  C283.180634,343.856415 283.994843,341.856842 285.552673,339.814575  C268.221588,340.140198 257.694092,331.862579 249.332581,319.603546  C232.358078,294.716919 215.196335,269.957977 198.106705,245.149902  C195.971497,242.050308 193.805649,238.971832 191.674149,235.912491  C174.452316,246.816513 152.890793,240.534515 144.522888,222.172241  C147.979095,222.172241 151.242996,222.164124 154.506851,222.173615  C171.380051,222.222672 188.074570,221.075378 204.360977,216.063904  C229.689957,208.269928 243.800369,189.998093 244.319809,163.843323  C244.841125,137.594635 233.529114,119.970497 208.815735,111.585564  C197.448776,107.728905 185.208038,104.879173 173.278229,104.535828  C132.981400,103.376068 92.646393,103.542664 52.325851,103.217896  C52.019878,103.215424 51.712143,103.431595 51.282295,103.591370  C51.282295,104.770897 51.282295,105.987495 51.282295,107.585564  C53.219810,107.585564 54.878998,107.485367 56.522911,107.601463  C69.397537,108.510704 73.438446,112.769531 73.845360,125.791656  C73.871376,126.624214 73.854530,127.458168 73.854523,128.291473  C73.854111,192.123596 73.861244,255.955719 73.824997,319.787811  C73.823486,322.437103 73.610405,325.119751 73.159119,327.728607  C72.047295,334.156006 68.503242,337.787048 62.119686,338.936646  C58.564789,339.576843 54.933762,339.794281 51.018684,340.238373  C51.120338,341.497742 51.216316,342.686829 51.322525,344.002625  C77.865692,344.002625 104.021927,344.002625 131.108688,343.994202 M446.562469,130.500305  C446.562469,121.527405 446.562469,112.554504 446.562469,103.720749  C443.473938,102.609413 442.264130,103.118286 441.979767,106.286072  C441.281830,114.060989 438.943909,116.714645 431.283875,116.188103  C426.195038,115.838303 420.824127,113.988106 416.336395,111.463844  C396.566895,100.343857 375.767883,97.013206 353.698700,102.039413  C337.299530,105.774284 322.928223,113.199066 313.232941,127.414703  C300.131622,146.624374 301.878143,170.761795 317.186981,190.603165  C328.022064,204.646225 342.108307,215.015091 356.289429,225.290741  C371.113434,236.032227 386.072479,246.600281 400.619598,257.706390  C409.940796,264.822723 417.929749,273.406586 422.818115,284.308502  C432.367706,305.605835 424.190826,328.603546 403.111481,335.838257  C379.628967,343.897858 356.995880,340.842194 337.203369,324.896576  C322.933868,313.400513 315.695465,297.497101 312.191956,280.011444  C309.914764,268.646149 309.107483,256.986328 307.619049,245.280777  C306.915863,245.280777 305.687256,245.280777 304.438782,245.280777  C304.438782,278.300751 304.438782,311.042053 304.438782,345.501953  C306.554413,343.691772 308.426178,342.891022 308.635468,341.777771  C309.767914,335.753479 313.927551,333.766296 319.255981,332.954071  C326.482727,331.852386 333.167358,333.713470 339.509705,336.870117  C363.505646,348.813080 388.660980,350.734375 414.437073,344.963806  C444.940521,338.134918 461.753632,316.153107 459.264404,282.147003  C457.912964,263.684631 448.974762,248.987747 435.299561,237.647522  C421.503876,226.207428 406.325867,216.444565 391.886230,205.767319  C381.323944,197.957153 370.455750,190.442612 360.661438,181.740997  C347.552399,170.094452 340.092651,155.393646 340.905304,137.221298  C341.538940,123.051567 350.276428,112.206657 364.053680,108.947746  C393.760956,101.920692 422.743195,117.052177 435.200928,145.940842  C440.014771,157.103806 441.831451,168.837799 442.240051,180.703232  C446.474640,182.194946 446.604034,179.869247 446.592072,176.998627  C446.528778,161.832748 446.561981,146.666458 446.562469,130.500305 z"></path><path fill="#FDFDFD" opacity="1.000000" stroke="none" d="M130.643433,343.998413  C104.021927,344.002625 77.865692,344.002625 51.322525,344.002625  C51.216316,342.686829 51.120338,341.497742 51.018684,340.238373  C54.933762,339.794281 58.564789,339.576843 62.119686,338.936646  C68.503242,337.787048 72.047295,334.156006 73.159119,327.728607  C73.610405,325.119751 73.823486,322.437103 73.824997,319.787811  C73.861244,255.955719 73.854111,192.123596 73.854523,128.291473  C73.854530,127.458168 73.871376,126.624214 73.845360,125.791656  C73.438446,112.769531 69.397537,108.510704 56.522911,107.601463  C54.878998,107.485367 53.219810,107.585564 51.282295,107.585564  C51.282295,105.987495 51.282295,104.770897 51.282295,103.591370  C51.712143,103.431595 52.019878,103.215424 52.325851,103.217896  C92.646393,103.542664 132.981400,103.376068 173.278229,104.535828  C185.208038,104.879173 197.448776,107.728905 208.815735,111.585564  C233.529114,119.970497 244.841125,137.594635 244.319809,163.843323  C243.800369,189.998093 229.689957,208.269928 204.360977,216.063904  C188.074570,221.075378 171.380051,222.222672 154.506851,222.173615  C151.242996,222.164124 147.979095,222.172241 144.522888,222.172241  C152.890793,240.534515 174.452316,246.816513 191.674149,235.912491  C193.805649,238.971832 195.971497,242.050308 198.106705,245.149902  C215.196335,269.957977 232.358078,294.716919 249.332581,319.603546  C257.694092,331.862579 268.221588,340.140198 285.552673,339.814575  C283.994843,341.856842 283.180634,343.856415 282.361603,343.858368  C269.874298,343.888092 257.340912,344.258179 244.911118,343.319550  C232.110840,342.352905 221.235306,336.124481 213.003601,326.468109  C204.493973,316.485718 196.668243,305.872528 189.112137,295.135040  C172.924866,272.132385 157.057709,248.903534 141.197052,225.673401  C139.389145,223.025482 137.539993,221.985474 134.325699,222.089890  C126.508781,222.343826 118.678055,222.172546 110.031860,222.172546  C110.031860,224.072220 110.031860,225.809937 110.031860,227.547638  C110.031929,258.047058 110.028671,288.546478 110.033424,319.045898  C110.035957,335.312531 114.094475,339.479980 130.237137,339.833771  C130.900589,339.848297 131.562912,339.914490 133.623962,340.045502  C132.562241,341.712280 131.835464,342.853241 130.643433,343.998413 M110.030640,132.500000  C110.030640,160.875671 110.030640,189.251328 110.030640,217.829010  C116.119530,217.829010 121.440453,217.999573 126.746956,217.795334  C139.863815,217.290482 153.101410,217.543259 166.054321,215.768234  C181.804626,213.609863 195.134918,206.449188 202.552505,191.247986  C208.531433,178.995071 209.187012,165.929031 207.805649,152.717712  C205.244965,128.227554 190.307968,112.102272 165.993469,109.078850  C152.687759,107.424324 139.110687,107.916786 125.653320,107.535301  C120.564194,107.391029 115.467560,107.511879 110.030640,107.511879  C110.030640,115.903923 110.030640,123.701973 110.030640,132.500000 z"></path><path fill="#FCFCFC" opacity="1.000000" stroke="none" d="M446.562103,131.000305  C446.561981,146.666458 446.528778,161.832748 446.592072,176.998627  C446.604034,179.869247 446.474640,182.194946 442.240051,180.703232  C441.831451,168.837799 440.014771,157.103806 435.200928,145.940842  C422.743195,117.052177 393.760956,101.920692 364.053680,108.947746  C350.276428,112.206657 341.538940,123.051567 340.905304,137.221298  C340.092651,155.393646 347.552399,170.094452 360.661438,181.740997  C370.455750,190.442612 381.323944,197.957153 391.886230,205.767319  C406.325867,216.444565 421.503876,226.207428 435.299561,237.647522  C448.974762,248.987747 457.912964,263.684631 459.264404,282.147003  C461.753632,316.153107 444.940521,338.134918 414.437073,344.963806  C388.660980,350.734375 363.505646,348.813080 339.509705,336.870117  C333.167358,333.713470 326.482727,331.852386 319.255981,332.954071  C313.927551,333.766296 309.767914,335.753479 308.635468,341.777771  C308.426178,342.891022 306.554413,343.691772 304.438782,345.501953  C304.438782,311.042053 304.438782,278.300751 304.438782,245.280777  C305.687256,245.280777 306.915863,245.280777 307.619049,245.280777  C309.107483,256.986328 309.914764,268.646149 312.191956,280.011444  C315.695465,297.497101 322.933868,313.400513 337.203369,324.896576  C356.995880,340.842194 379.628967,343.897858 403.111481,335.838257  C424.190826,328.603546 432.367706,305.605835 422.818115,284.308502  C417.929749,273.406586 409.940796,264.822723 400.619598,257.706390  C386.072479,246.600281 371.113434,236.032227 356.289429,225.290741  C342.108307,215.015091 328.022064,204.646225 317.186981,190.603165  C301.878143,170.761795 300.131622,146.624374 313.232941,127.414703  C322.928223,113.199066 337.299530,105.774284 353.698700,102.039413  C375.767883,97.013206 396.566895,100.343857 416.336395,111.463844  C420.824127,113.988106 426.195038,115.838303 431.283875,116.188103  C438.943909,116.714645 441.281830,114.060989 441.979767,106.286072  C442.264130,103.118286 443.473938,102.609413 446.562469,103.720749  C446.562469,112.554504 446.562469,121.527405 446.562103,131.000305 z"></path><path fill="#313131" opacity="1.000000" stroke="none" d="M110.030640,132.000015  C110.030640,123.701973 110.030640,115.903923 110.030640,107.511879  C115.467560,107.511879 120.564194,107.391029 125.653320,107.535301  C139.110687,107.916786 152.687759,107.424324 165.993469,109.078850  C190.307968,112.102272 205.244965,128.227554 207.805649,152.717712  C209.187012,165.929031 208.531433,178.995071 202.552505,191.247986  C195.134918,206.449188 181.804626,213.609863 166.054321,215.768234  C153.101410,217.543259 139.863815,217.290482 126.746956,217.795334  C121.440453,217.999573 116.119530,217.829010 110.030640,217.829010  C110.030640,189.251328 110.030640,160.875671 110.030640,132.000015 z"></path></svg>